# xmcd
#
# Track frame offsets:
# 150
# 12687
# 31588
# 47619
# 62850
# 80024
# 96308
# 113700
# 130139
# 148896
#
# Disc length: 2272 seconds
#
#
# Revision: 0
# Processed by: cddbd v1.5PL3 Copyright (c) Steve Scherf et al.
# Submitted via: FreeRIP 2.51 
#
DISCID=8908de0a
DTITLE=Mike Hammock - Winds Of Change
DYEAR=2004
DGENRE=Christian Country
TTITLE0=Headin' For The Finish Line
TTITLE1=Tribute
TTITLE2=Guard Your Heart
TTITLE3=Can't Take It With You
TTITLE4=Angle Up There
TTITLE5=Get Off The Fence
TTITLE6=Hello East Texas
TTITLE7=Be Like You
TTITLE8=The Old Rugged Cross
TTITLE9=Winds Of Change
EXTD=
EXTT0=
EXTT1=
EXTT2=
EXTT3=
EXTT4=
EXTT5=
EXTT6=
EXTT7=
EXTT8=
EXTT9=
PLAYORDER=
